<?xml version="1.0" encoding="iso-8859-1"?>
<!-- Generator: Adobe Illustrator 19.0.0, SVG Export Plug-In . SVG Version: 6.00 Build 0)  -->
<svg version="1.1" id="Layer_1" xmlns="http://www.w3.org/2000/svg" xmlns:xlink="http://www.w3.org/1999/xlink" x="0px" y="0px"
	 viewBox="0 0 512.064 512.064" style="enable-background:new 0 0 512.064 512.064;" xml:space="preserve">
<path style="fill:#414752;" d="M391.392,512.064L289.36,430.576c-11.248,1.76-22.416,2.656-33.328,2.656
	c-119.632,0-216.96-97.168-216.96-216.624C39.072,97.168,136.4,0,256.032,0s216.96,97.168,216.96,216.624
	c0,66.448-29.632,127.616-81.6,169.008L391.392,512.064L391.392,512.064z M297.952,396.48l61.44,49.072V369.68l6.48-4.8
	c47.728-35.312,75.104-89.36,75.104-148.288c0-101.792-82.976-184.624-184.96-184.624S71.072,114.816,71.072,216.608
	s82.976,184.624,184.96,184.624c11.264,0,22.944-1.136,34.688-3.376L297.952,396.48z"/>
<g>
</g>
<g>
</g>
<g>
</g>
<g>
</g>
<g>
</g>
<g>
</g>
<g>
</g>
<g>
</g>
<g>
</g>
<g>
</g>
<g>
</g>
<g>
</g>
<g>
</g>
<g>
</g>
<g>
</g>
</svg>
